<svg width="64" height="64" viewBox="0 0 64 64" fill="none" xmlns="http://www.w3.org/2000/svg">
  <rect width="64" height="64" rx="18" fill="#0B1324"/>
  <path d="M18 39.1C20.7 43 25.3 45.5 31.3 45.5C39.5 45.5 45.1 41.4 45.1 34.9C45.1 29.3 41.2 26.7 33.3 24.8C27.7 23.5 25.5 22.5 25.5 20.1C25.5 17.7 27.6 16 31.2 16C35.2 16 37.9 17.8 40.3 21.1L44.3 17.8C41.4 13.6 36.9 11.4 31.3 11.4C24.2 11.4 19.5 15.2 19.5 20.6C19.5 26.5 23.7 28.9 31.6 30.7C37.3 32.1 39.2 33.2 39.2 35.5C39.2 38.4 36.5 40.6 31.5 40.6C27.3 40.6 23.9 38.8 21.7 35.9L18 39.1Z" fill="#F2CF7A"/>
  <path d="M20 51H44" stroke="#66D9FF" stroke-width="3" stroke-linecap="round"/>
</svg>
