<svg width="96" height="96" viewBox="0 0 96 96" fill="none" xmlns="http://www.w3.org/2000/svg" role="img" aria-label="Saikiran logo">
  <rect x="8" y="8" width="80" height="80" rx="24" fill="#0B1324"/>
  <rect x="8.8" y="8.8" width="78.4" height="78.4" rx="23.2" stroke="url(#paint0_linear)" stroke-width="1.6"/>
  <path d="M28 58.5C31.8 64 38.3 67.5 46.6 67.5C58.1 67.5 66 61.7 66 52.7C66 44.8 60.5 41.1 49.4 38.5C41.6 36.7 38.5 35.3 38.5 31.9C38.5 28.5 41.5 26.1 46.5 26.1C52.1 26.1 55.9 28.6 59.2 33.2L64.8 28.5C60.7 22.7 54.5 19.5 46.7 19.5C36.8 19.5 30.2 24.9 30.2 32.4C30.2 40.7 36.1 44.1 47.1 46.6C55.1 48.5 57.7 50.1 57.7 53.3C57.7 57.4 53.9 60.5 46.9 60.5C41 60.5 36.2 57.9 33.2 53.8L28 58.5Z" fill="url(#paint1_linear)"/>
  <path d="M29 74H67" stroke="#66D9FF" stroke-opacity="0.85" stroke-width="3" stroke-linecap="round"/>
  <defs>
    <linearGradient id="paint0_linear" x1="12" y1="8" x2="88" y2="88" gradientUnits="userSpaceOnUse">
      <stop stop-color="#F2CF7A"/>
      <stop offset="1" stop-color="#66D9FF"/>
    </linearGradient>
    <linearGradient id="paint1_linear" x1="29" y1="19" x2="66" y2="67" gradientUnits="userSpaceOnUse">
      <stop stop-color="#F2CF7A"/>
      <stop offset="1" stop-color="#D6B46A"/>
    </linearGradient>
  </defs>
</svg>
